<?xml version="1.0" encoding="utf-8" ?>
<svg baseProfile="full" height="1024px" shape-rendering="geometricPrecision" version="1.1" viewBox="0 0 1024 1024" width="1024px" xmlns="http://www.w3.org/2000/svg" xmlns:ev="http://www.w3.org/2001/xml-events" xmlns:xlink="http://www.w3.org/1999/xlink"><defs /><g><ellipse cx="512" cy="885" fill="#CBD5E1" opacity="0.35" rx="250" ry="32" /><circle cx="700" cy="700" fill="#111827" r="210" stroke="#111827" stroke-width="18" /><circle cx="700" cy="700" fill="#475569" r="95" stroke="#111827" stroke-width="14" /><circle cx="260" cy="300" fill="#F3B184" r="62" stroke="#111827" stroke-width="10" /><path d="M 202,292 Q 260,220 318,292 L 308,265 Q 260,232 212,265 Z" fill="#1F2937" stroke="#1F2937" stroke-linecap="round" stroke-linejoin="round" stroke-width="1" /><circle cx="282" cy="307" fill="#111827" r="5" stroke="none" stroke-width="0" /><polyline fill="none" points="320,360 520,600" stroke="#111827" stroke-linecap="round" stroke-linejoin="round" stroke-width="128" /><polyline fill="none" points="320,360 520,600" stroke="#B45309" stroke-linecap="round" stroke-linejoin="round" stroke-width="110" /><polyline fill="none" points="440,500 570,620 610,680" stroke="#111827" stroke-linecap="round" stroke-linejoin="round" stroke-width="52" /><polyline fill="none" points="440,500 570,620 610,680" stroke="#F3B184" stroke-linecap="round" stroke-linejoin="round" stroke-width="34" /><polyline fill="none" points="520,600 430,720 380,860" stroke="#111827" stroke-linecap="round" stroke-linejoin="round" stroke-width="70" /><polyline fill="none" points="520,600 430,720 380,860" stroke="#26344E" stroke-linecap="round" stroke-linejoin="round" stroke-width="52" /><polyline fill="none" points="520,600 630,710 730,850" stroke="#111827" stroke-linecap="round" stroke-linejoin="round" stroke-width="70" /><polyline fill="none" points="520,600 630,710 730,850" stroke="#26344E" stroke-linecap="round" stroke-linejoin="round" stroke-width="52" /></g></svg>