<?xml version="1.0" encoding="utf-8" ?>
<svg baseProfile="full" height="1024px" shape-rendering="geometricPrecision" version="1.1" viewBox="0 0 1024 1024" width="1024px" xmlns="http://www.w3.org/2000/svg" xmlns:ev="http://www.w3.org/2001/xml-events" xmlns:xlink="http://www.w3.org/1999/xlink"><defs /><g><ellipse cx="512" cy="885" fill="#CBD5E1" opacity="0.35" rx="250" ry="32" /><polyline fill="none" points="170,120 854,120" stroke="#111827" stroke-linecap="round" stroke-linejoin="round" stroke-width="36" /><polyline fill="none" points="170,120 854,120" stroke="#94A3B8" stroke-linecap="round" stroke-linejoin="round" stroke-width="18" /><circle cx="512" cy="300" fill="#F3B184" r="62" stroke="#111827" stroke-width="10" /><path d="M 454,292 Q 512,220 570,292 L 560,265 Q 512,232 464,265 Z" fill="#1F2937" stroke="#1F2937" stroke-linecap="round" stroke-linejoin="round" stroke-width="1" /><circle cx="534" cy="307" fill="#111827" r="5" stroke="none" stroke-width="0" /><g><rect fill="#3B82F6" height="300" opacity="1" rx="34" ry="34" stroke="#111827" stroke-width="12" width="164" x="430" y="375" /><line opacity="0.45" stroke="#FFFFFF" stroke-linecap="round" stroke-width="8" x1="454" x2="570" y1="417" y2="417" /></g><polyline fill="none" points="452,430 350,290 360,125" stroke="#111827" stroke-linecap="round" stroke-linejoin="round" stroke-width="52" /><polyline fill="none" points="452,430 350,290 360,125" stroke="#F3B184" stroke-linecap="round" stroke-linejoin="round" stroke-width="34" /><polyline fill="none" points="572,430 674,290 664,125" stroke="#111827" stroke-linecap="round" stroke-linejoin="round" stroke-width="52" /><polyline fill="none" points="572,430 674,290 664,125" stroke="#F3B184" stroke-linecap="round" stroke-linejoin="round" stroke-width="34" /><polyline fill="none" points="466,670 455,760 390,850" stroke="#111827" stroke-linecap="round" stroke-linejoin="round" stroke-width="66" /><polyline fill="none" points="466,670 455,760 390,850" stroke="#26344E" stroke-linecap="round" stroke-linejoin="round" stroke-width="48" /><polyline fill="none" points="558,670 569,760 634,850" stroke="#111827" stroke-linecap="round" stroke-linejoin="round" stroke-width="66" /><polyline fill="none" points="558,670 569,760 634,850" stroke="#26344E" stroke-linecap="round" stroke-linejoin="round" stroke-width="48" /><ellipse cx="380" cy="850" fill="#111827" rx="40" ry="14" stroke="#111827" stroke-width="7" /><ellipse cx="644" cy="850" fill="#111827" rx="40" ry="14" stroke="#111827" stroke-width="7" /></g></svg>