<?xml version="1.0" encoding="utf-8" ?>
<svg baseProfile="full" height="1024px" shape-rendering="geometricPrecision" version="1.1" viewBox="0 0 1024 1024" width="1024px" xmlns="http://www.w3.org/2000/svg" xmlns:ev="http://www.w3.org/2001/xml-events" xmlns:xlink="http://www.w3.org/1999/xlink"><defs /><g><ellipse cx="512" cy="885" fill="#CBD5E1" opacity="0.35" rx="250" ry="32" /><circle cx="390" cy="270" fill="#F3B184" r="62" stroke="#111827" stroke-width="10" /><path d="M 332,262 Q 390,190 448,262 L 438,235 Q 390,202 342,235 Z" fill="#1F2937" stroke="#1F2937" stroke-linecap="round" stroke-linejoin="round" stroke-width="1" /><circle cx="412" cy="277" fill="#111827" r="5" stroke="none" stroke-width="0" /><polyline fill="none" points="420,330 610,620" stroke="#111827" stroke-linecap="round" stroke-linejoin="round" stroke-width="128" /><polyline fill="none" points="420,330 610,620" stroke="#8B5CF6" stroke-linecap="round" stroke-linejoin="round" stroke-width="110" /><polyline fill="none" points="610,620 660,745 700,870" stroke="#111827" stroke-linecap="round" stroke-linejoin="round" stroke-width="70" /><polyline fill="none" points="610,620 660,745 700,870" stroke="#26344E" stroke-linecap="round" stroke-linejoin="round" stroke-width="52" /><polyline fill="none" points="590,630 560,760 520,875" stroke="#111827" stroke-linecap="round" stroke-linejoin="round" stroke-width="70" /><polyline fill="none" points="590,630 560,760 520,875" stroke="#26344E" stroke-linecap="round" stroke-linejoin="round" stroke-width="52" /><polyline fill="none" points="390,880 760,880" stroke="#111827" stroke-linecap="round" stroke-linejoin="round" stroke-width="40" /><polyline fill="none" points="390,880 760,880" stroke="#94A3B8" stroke-linecap="round" stroke-linejoin="round" stroke-width="22" /></g></svg>