<?xml version="1.0" encoding="utf-8" ?>
<svg baseProfile="full" height="1024px" shape-rendering="geometricPrecision" version="1.1" viewBox="0 0 1024 1024" width="1024px" xmlns="http://www.w3.org/2000/svg" xmlns:ev="http://www.w3.org/2001/xml-events" xmlns:xlink="http://www.w3.org/1999/xlink"><defs /><g><ellipse cx="512" cy="885" fill="#CBD5E1" opacity="0.35" rx="250" ry="32" /><circle cx="280" cy="400" fill="#F3B184" r="62" stroke="#111827" stroke-width="10" /><path d="M 222,392 Q 280,320 338,392 L 328,365 Q 280,332 232,365 Z" fill="#1F2937" stroke="#1F2937" stroke-linecap="round" stroke-linejoin="round" stroke-width="1" /><circle cx="302" cy="407" fill="#111827" r="5" stroke="none" stroke-width="0" /><polyline fill="none" points="340,455 610,650" stroke="#111827" stroke-linecap="round" stroke-linejoin="round" stroke-width="123" /><polyline fill="none" points="340,455 610,650" stroke="#14B8A6" stroke-linecap="round" stroke-linejoin="round" stroke-width="105" /><polyline fill="none" points="460,540 610,690 760,730" stroke="#111827" stroke-linecap="round" stroke-linejoin="round" stroke-width="52" /><polyline fill="none" points="460,540 610,690 760,730" stroke="#F3B184" stroke-linecap="round" stroke-linejoin="round" stroke-width="34" /><polyline fill="none" points="610,650 520,750 480,865" stroke="#111827" stroke-linecap="round" stroke-linejoin="round" stroke-width="70" /><polyline fill="none" points="610,650 520,750 480,865" stroke="#26344E" stroke-linecap="round" stroke-linejoin="round" stroke-width="52" /><circle cx="820" cy="760" fill="#475569" r="70" stroke="#111827" stroke-width="12" /><circle cx="820" cy="760" fill="#CBD5E1" r="18" stroke="#111827" stroke-width="6" /></g></svg>